<?xml version="1.0" encoding="utf-8"?>
<!-- Generator: Adobe Illustrator 18.0.0, SVG Export Plug-In . SVG Version: 6.00 Build 0)  -->
<!DOCTYPE svg PUBLIC "-//W3C//DTD SVG 1.1//EN" "http://www.w3.org/Graphics/SVG/1.1/DTD/svg11.dtd">
<svg version="1.1" id="Layer_1" xmlns="http://www.w3.org/2000/svg" xmlns:xlink="http://www.w3.org/1999/xlink" x="0px" y="0px"
	 viewBox="0 0 100 100" enable-background="new 0 0 100 100" xml:space="preserve">
<g>
	<path d="M1.3,79.1V21.5h19.2v38.4h19.2V21.5h57.6v57.6H78.1V40.7H58.9v38.4H1.3z M49.3,21.5c-5.3,0-9.6-4.3-9.6-9.6
		c0-5.3,4.3-9.6,9.6-9.6c5.3,0,9.6,4.3,9.6,9.6C58.9,17.2,54.6,21.5,49.3,21.5z M49.3,19.1c4,0,7.2-3.2,7.2-7.2c0-4-3.2-7.2-7.2-7.2
		c-4,0-7.2,3.2-7.2,7.2C42.1,15.9,45.4,19.1,49.3,19.1z"/>
</g>
</svg>
