<?xml version="1.0" encoding="utf-8"?>
<!-- Generator: Adobe Illustrator 18.0.0, SVG Export Plug-In . SVG Version: 6.00 Build 0)  -->
<!DOCTYPE svg PUBLIC "-//W3C//DTD SVG 1.1//EN" "http://www.w3.org/Graphics/SVG/1.1/DTD/svg11.dtd">
<svg version="1.1" id="Layer_1" xmlns="http://www.w3.org/2000/svg" xmlns:xlink="http://www.w3.org/1999/xlink" x="0px" y="0px"
	 viewBox="263 0 230 612" enable-background="new 263 0 230 612" xml:space="preserve">
<g>
	<path d="M380.2,131.6c-32.4,0-58.8-26.3-58.8-58.8s26.3-58.8,58.8-58.8S439,40.4,439,72.8C439,105.3,412.7,131.6,380.2,131.6z
		 M321.5,484.1V131.6H439v352.5H321.5z M380.2,601.6c-32.4,0-58.8-26.3-58.8-58.8s26.3-58.8,58.8-58.8s58.8,26.3,58.8,58.8
		S412.7,601.6,380.2,601.6z M380.2,116.9c24.5,0,44.1-19.6,44.1-44.1s-19.6-44.1-44.1-44.1c-24.5,0-44.1,19.6-44.1,44.1
		S356.3,116.9,380.2,116.9z M380.2,586.9c24.5,0,44.1-19.6,44.1-44.1c0-24.5-19.6-44.1-44.1-44.1c-24.5,0-44.1,19.6-44.1,44.1
		C336.2,567.3,356.3,586.9,380.2,586.9z"/>
</g>
</svg>
