<?xml version="1.0" encoding="utf-8"?>
<!-- Generator: Adobe Illustrator 18.0.0, SVG Export Plug-In . SVG Version: 6.00 Build 0)  -->
<!DOCTYPE svg PUBLIC "-//W3C//DTD SVG 1.1//EN" "http://www.w3.org/Graphics/SVG/1.1/DTD/svg11.dtd">
<svg version="1.1" id="Layer_1" xmlns="http://www.w3.org/2000/svg" xmlns:xlink="http://www.w3.org/1999/xlink" x="0px" y="0px"
	 viewBox="132 0 460 612" enable-background="new 132 0 460 612" xml:space="preserve">
<g>
	<path d="M187.5,484.1V131.6H305v235h117.5v-235H540v352.5H187.5z M481.2,131.6c-32.4,0-58.8-26.3-58.8-58.8s26.3-58.8,58.8-58.8
		S540,40.4,540,72.8S513.7,131.6,481.2,131.6z M481.2,601.6c-32.4,0-58.8-26.3-58.8-58.8s26.3-58.8,58.8-58.8s58.8,26.3,58.8,58.8
		S513.7,601.6,481.2,601.6z M481.2,116.9c24.5,0,44.1-19.6,44.1-44.1s-19.6-44.1-44.1-44.1c-24.5,0-44.1,19.6-44.1,44.1
		S457.4,116.9,481.2,116.9z M481.2,586.9c24.5,0,44.1-19.6,44.1-44.1c0-24.5-19.6-44.1-44.1-44.1c-24.5,0-44.1,19.6-44.1,44.1
		C437.2,567.3,457.4,586.9,481.2,586.9z"/>
</g>
</svg>
