<?xml version="1.0" encoding="utf-8"?>
<!-- Generator: Adobe Illustrator 18.0.0, SVG Export Plug-In . SVG Version: 6.00 Build 0)  -->
<!DOCTYPE svg PUBLIC "-//W3C//DTD SVG 1.1//EN" "http://www.w3.org/Graphics/SVG/1.1/DTD/svg11.dtd">
<svg version="1.1" id="Layer_1" xmlns="http://www.w3.org/2000/svg" xmlns:xlink="http://www.w3.org/1999/xlink" x="0px" y="0px"
	 viewBox="272 0 230 612" enable-background="new 272 0 230 612" xml:space="preserve">
<g>
	<path d="M389.2,131.6c-32.4,0-58.8-26.3-58.8-58.8s26.3-58.8,58.8-58.8S448,40.4,448,72.8C448,105.3,421.7,131.6,389.2,131.6z
		 M389.2,601.6c-32.4,0-58.8-26.3-58.8-58.8s26.3-58.8,58.8-58.8s58.8,26.3,58.8,58.8S421.7,601.6,389.2,601.6z M389.2,116.9
		c24.5,0,44.1-19.6,44.1-44.1s-19.6-44.1-44.1-44.1c-24.5,0-44.1,19.6-44.1,44.1S365.3,116.9,389.2,116.9z M389.2,586.9
		c24.5,0,44.1-19.6,44.1-44.1c0-24.5-19.6-44.1-44.1-44.1c-24.5,0-44.1,19.6-44.1,44.1C345.2,567.3,365.3,586.9,389.2,586.9z"/>
</g>
</svg>
